<svg xmlns="http://www.w3.org/2000/svg" viewBox="0 0 1000 1000"><defs><style>.cls-1{fill:#011826;}.cls-2{fill:#be0358;}.cls-3{fill:#37a2b9;}.cls-4{fill:#ffce05;}.cls-4,.cls-5{stroke:#011826;stroke-miterlimit:10;stroke-width:10px;}.cls-5{fill:#ef0b59;}</style></defs><g id="Background"><rect class="cls-1" width="1000" height="1000" rx="500"/></g><g id="C"><path class="cls-2" d="M704.6,510.52c-60.18,0-112.26-21.57-154.8-64.11s-64.1-94.61-64.1-154.79,21.57-112.25,64.11-154.79,94.61-64.1,154.79-64.1,112.24,21.57,154.78,64.1l1.51,1.51a5,5,0,0,1,0,7.1L752.73,253a5,5,0,0,1-7,0l-1.26-1.26c-11.11-10.91-24.15-16.24-39.83-16.24s-28.66,5.37-39.71,16.41-16.41,24-16.41,39.7,5.37,28.66,16.41,39.71,24,16.41,39.71,16.41c15.48,0,28.33-5.23,39.27-16a5,5,0,0,1,7,0L859.08,439.64a5,5,0,0,1,0,7.09C816.53,489.06,764.56,510.52,704.6,510.52Z"/><path class="cls-1" d="M704.6,77.73q88.6,0,151.25,62.64l1.53,1.53L749.21,249.46c-.41-.41-.82-.81-1.22-1.23a59.71,59.71,0,0,0-43.39-17.72,61,61,0,0,0-61.12,61.11q0,25.38,17.88,43.24a58.88,58.88,0,0,0,43.24,17.88q25,0,42.77-17.42L855.54,443.18Q792.9,505.52,704.6,505.52q-88.62,0-151.26-62.64T490.7,291.62q0-88.6,62.64-151.25T704.6,77.73m0-10c-30.72,0-59.64,5.52-86,16.42S568,111.58,546.27,133.3,508,179.37,497.12,205.68s-16.42,55.23-16.42,85.94,5.53,59.64,16.42,85.95,27.43,50.67,49.15,72.38,46.06,38.25,72.38,49.15,55.22,16.42,86,16.42S764,510,790.3,499.18s50.58-27.3,72.3-48.91a10,10,0,0,0,0-14.17L754.44,328.24a10,10,0,0,0-14.07-.05c-10,9.79-21.67,14.55-35.77,14.55-14.28,0-26.11-4.89-36.17-14.95s-14.95-21.89-14.95-36.17,4.89-26.1,14.95-36.16,21.89-15,36.17-15a49.62,49.62,0,0,1,36.33,14.81l1.25,1.25a10,10,0,0,0,14.08,0L864.43,149a10,10,0,0,0,0-14.2l-.87-.87-.62-.62c-21.72-21.72-46.07-38.25-72.38-49.15S735.31,67.73,704.6,67.73Z"/></g><g id="X"><path class="cls-3" d="M445.4,926.43a5,5,0,0,1-4.34-7.48l125.51-219.7L313.72,279.54A5,5,0,0,1,318,272H482.31a5,5,0,0,1,4.29,2.43L654.55,554.17l40.51-66.71a5,5,0,0,1,4.27-2.4H863.64a5,5,0,0,1,4.28,7.59L742.53,699.18,867.92,905.71a5,5,0,0,1-4.28,7.59H699.33a5,5,0,0,1-4.27-2.4l-40.18-66.17-40.72,79a5,5,0,0,1-4.45,2.71Z"/><path class="cls-1" d="M482.31,277,654.52,563.85l44.82-73.79h164.3l-127,209.12,127,209.12H699.34l-44.82-73.79-44.81,86.92H445.4l127-222.25L318,277h164.3m381.33,213.1h0M482.31,267H318a10,10,0,0,0-8.57,15.16L560.78,699.31,436.72,916.47a10,10,0,0,0,8.68,15H609.71A10,10,0,0,0,618.6,926L655.24,855l35.55,58.54a10,10,0,0,0,8.55,4.81h164.3a10,10,0,0,0,8.55-15.19L748.38,699.18,872.07,495.45a10,10,0,0,0-8.4-15.39H699.34a10,10,0,0,0-8.55,4.81L654.57,544.5,490.89,271.82a10,10,0,0,0-8.58-4.86Z"/></g><g id="LLP"><path class="cls-1" d="M707.74,489.33H727v38.48h15.39V543.2H707.74Z"/><path class="cls-1" d="M746.22,489.33h19.24v38.48h15.39V543.2H746.22Z"/><path class="cls-1" d="M803.94,527.81V543.2H784.7V489.33h30.78q15.39,0,15.39,19.24t-15.39,19.24Zm0-23.09v7.7h3.85c2.56,0,3.84-1.29,3.84-3.85s-1.28-3.85-3.84-3.85Z"/></g><g id="P"><path class="cls-4" d="M304.11,808.5V928H154.74V509.76h239q119.49,0,119.5,149.37T393.74,808.5Zm0-179.24V689H334q29.86,0,29.87-29.87T334,629.26Z"/></g><g id="T"><path class="cls-5" d="M388.48,200.21V506.83H239.11V200.21H136.36V80.71H503.94v119.5Z"/></g></svg>